
<svg height="800px" width="800px" version="1.1" id="Capa_1" xmlns="http://www.w3.org/2000/svg" xmlns:xlink="http://www.w3.org/1999/xlink"
	 viewBox="0 0 400 400" xml:space="preserve">
<g>
	<g>

		<g>
			<path style="fill:#d97706;" d="M195.456,318.535c-46.673,0-84.644-38.44-84.644-85.687v-57.527
				c0-47.248,37.971-85.688,84.644-85.688c46.671,0,84.644,38.44,84.644,85.688v57.527
				C280.1,280.095,242.127,318.535,195.456,318.535z M195.456,101.145c-40.404,0-73.274,33.276-73.274,74.177v57.527
				c0,40.901,32.871,74.175,73.274,74.175c40.401,0,73.272-33.273,73.272-74.175v-57.527
				C268.728,134.421,235.856,101.145,195.456,101.145z"/>
		</g>
		<path style="fill:#d97706;" d="M296.404,179.741h-1.633c0-54.276-43.465-98.274-97.081-98.274
			c-53.614,0-97.079,43.999-97.079,98.274h-6.105c-6.64,0-12.023,5.45-12.023,12.171c0,6.724,5.383,12.173,12.023,12.173h201.898
			c6.641,0,12.025-5.449,12.025-12.173C308.43,185.191,303.045,179.741,296.404,179.741z"/>
		<path style="fill:#d97706;" d="M222.369,168.702c0-12.506-10.014-22.645-22.367-22.645c-12.357,0-22.371,10.138-22.371,22.645
			c0,12.507,10.014,22.645,22.371,22.645C212.355,191.347,222.369,181.208,222.369,168.702z"/>
		<path style="fill:none;" d="M122.181,232.849c0,40.901,32.871,74.175,73.274,74.175c1.528,0,3.039-0.062,4.544-0.156V204.086
			H122.18L122.181,232.849L122.181,232.849z"/>
		<path style="opacity:0.28;fill:#d97706;enable-background:new    ;" d="M280.1,232.849v-28.763h16.305
			c6.641,0,12.025-5.449,12.025-12.173c0-6.722-5.385-12.171-12.025-12.171h-1.633c0-53.493-42.226-96.969-94.771-98.216v122.561
			h68.728v28.763c0,39.354-30.436,71.633-68.728,74.019v11.541C244.567,316.008,280.1,278.551,280.1,232.849z"/>
	</g>
</g>
</svg>